<svg width="1512" height="14" viewBox="0 0 1512 14" fill="none" xmlns="http://www.w3.org/2000/svg">
<path d="M12 0.28941L23.5038 6.99851L12 13.7106L0.496159 6.9985L12 0.28941Z" fill="#723E30" stroke="#A3724F" stroke-width="0.5"/>
<path d="M12 3.28792L18.4961 6.99917L12 10.712L5.50389 6.99917L12 3.28792Z" stroke="#A3724F" stroke-width="0.5"/>
<path d="M36 0.28941L47.5038 6.99851L36 13.7106L24.4962 6.9985L36 0.28941Z" fill="#723E30" stroke="#A3724F" stroke-width="0.5"/>
<path d="M36 3.28792L42.4961 6.99917L36 10.712L29.5039 6.99917L36 3.28792Z" stroke="#A3724F" stroke-width="0.5"/>
<path d="M60 0.28941L71.5038 6.99851L60 13.7106L48.4962 6.9985L60 0.28941Z" fill="#723E30" stroke="#A3724F" stroke-width="0.5"/>
<path d="M60 3.28792L66.4961 6.99917L60 10.712L53.5039 6.99917L60 3.28792Z" stroke="#A3724F" stroke-width="0.5"/>
<path d="M84 0.28941L95.5038 6.99851L84 13.7106L72.4962 6.9985L84 0.28941Z" fill="#723E30" stroke="#A3724F" stroke-width="0.5"/>
<path d="M84 3.28792L90.4961 6.99917L84 10.712L77.5039 6.99917L84 3.28792Z" stroke="#A3724F" stroke-width="0.5"/>
<path d="M108 0.28941L119.504 6.99851L108 13.7106L96.4962 6.9985L108 0.28941Z" fill="#723E30" stroke="#A3724F" stroke-width="0.5"/>
<path d="M108 3.28792L114.496 6.99917L108 10.712L101.504 6.99917L108 3.28792Z" stroke="#A3724F" stroke-width="0.5"/>
<path d="M132 0.28941L143.504 6.99851L132 13.7106L120.496 6.9985L132 0.28941Z" fill="#723E30" stroke="#A3724F" stroke-width="0.5"/>
<path d="M132 3.28792L138.496 6.99917L132 10.712L125.504 6.99917L132 3.28792Z" stroke="#A3724F" stroke-width="0.5"/>
<path d="M156 0.28941L167.504 6.99851L156 13.7106L144.496 6.9985L156 0.28941Z" fill="#723E30" stroke="#A3724F" stroke-width="0.5"/>
<path d="M156 3.28792L162.496 6.99917L156 10.712L149.504 6.99917L156 3.28792Z" stroke="#A3724F" stroke-width="0.5"/>
<path d="M180 0.28941L191.504 6.99851L180 13.7106L168.496 6.9985L180 0.28941Z" fill="#723E30" stroke="#A3724F" stroke-width="0.5"/>
<path d="M180 3.28792L186.496 6.99917L180 10.712L173.504 6.99917L180 3.28792Z" stroke="#A3724F" stroke-width="0.5"/>
<path d="M204 0.28941L215.504 6.99851L204 13.7106L192.496 6.9985L204 0.28941Z" fill="#723E30" stroke="#A3724F" stroke-width="0.5"/>
<path d="M204 3.28792L210.496 6.99917L204 10.712L197.504 6.99917L204 3.28792Z" stroke="#A3724F" stroke-width="0.5"/>
<path d="M228 0.28941L239.504 6.99851L228 13.7106L216.496 6.9985L228 0.28941Z" fill="#723E30" stroke="#A3724F" stroke-width="0.5"/>
<path d="M228 3.28792L234.496 6.99917L228 10.712L221.504 6.99917L228 3.28792Z" stroke="#A3724F" stroke-width="0.5"/>
<path d="M252 0.28941L263.504 6.99851L252 13.7106L240.496 6.9985L252 0.28941Z" fill="#723E30" stroke="#A3724F" stroke-width="0.5"/>
<path d="M252 3.28792L258.496 6.99917L252 10.712L245.504 6.99917L252 3.28792Z" stroke="#A3724F" stroke-width="0.5"/>
<path d="M276 0.28941L287.504 6.99851L276 13.7106L264.496 6.9985L276 0.28941Z" fill="#723E30" stroke="#A3724F" stroke-width="0.5"/>
<path d="M276 3.28792L282.496 6.99917L276 10.712L269.504 6.99917L276 3.28792Z" stroke="#A3724F" stroke-width="0.5"/>
<path d="M300 0.28941L311.504 6.99851L300 13.7106L288.496 6.9985L300 0.28941Z" fill="#723E30" stroke="#A3724F" stroke-width="0.5"/>
<path d="M300 3.28792L306.496 6.99917L300 10.712L293.504 6.99917L300 3.28792Z" stroke="#A3724F" stroke-width="0.5"/>
<path d="M324 0.28941L335.504 6.99851L324 13.7106L312.496 6.9985L324 0.28941Z" fill="#723E30" stroke="#A3724F" stroke-width="0.5"/>
<path d="M324 3.28792L330.496 6.99917L324 10.712L317.504 6.99917L324 3.28792Z" stroke="#A3724F" stroke-width="0.5"/>
<path d="M348 0.28941L359.504 6.99851L348 13.7106L336.496 6.9985L348 0.28941Z" fill="#723E30" stroke="#A3724F" stroke-width="0.5"/>
<path d="M348 3.28792L354.496 6.99917L348 10.712L341.504 6.99917L348 3.28792Z" stroke="#A3724F" stroke-width="0.5"/>
<path d="M372 0.28941L383.504 6.99851L372 13.7106L360.496 6.9985L372 0.28941Z" fill="#723E30" stroke="#A3724F" stroke-width="0.5"/>
<path d="M372 3.28792L378.496 6.99917L372 10.712L365.504 6.99917L372 3.28792Z" stroke="#A3724F" stroke-width="0.5"/>
<path d="M396 0.28941L407.504 6.99851L396 13.7106L384.496 6.9985L396 0.28941Z" fill="#723E30" stroke="#A3724F" stroke-width="0.5"/>
<path d="M396 3.28792L402.496 6.99917L396 10.712L389.504 6.99917L396 3.28792Z" stroke="#A3724F" stroke-width="0.5"/>
<path d="M420 0.28941L431.504 6.99851L420 13.7106L408.496 6.9985L420 0.28941Z" fill="#723E30" stroke="#A3724F" stroke-width="0.5"/>
<path d="M420 3.28792L426.496 6.99917L420 10.712L413.504 6.99917L420 3.28792Z" stroke="#A3724F" stroke-width="0.5"/>
<path d="M444 0.28941L455.504 6.99851L444 13.7106L432.496 6.9985L444 0.28941Z" fill="#723E30" stroke="#A3724F" stroke-width="0.5"/>
<path d="M444 3.28792L450.496 6.99917L444 10.712L437.504 6.99917L444 3.28792Z" stroke="#A3724F" stroke-width="0.5"/>
<path d="M468 0.28941L479.504 6.99851L468 13.7106L456.496 6.9985L468 0.28941Z" fill="#723E30" stroke="#A3724F" stroke-width="0.5"/>
<path d="M468 3.28792L474.496 6.99917L468 10.712L461.504 6.99917L468 3.28792Z" stroke="#A3724F" stroke-width="0.5"/>
<path d="M492 0.28941L503.504 6.99851L492 13.7106L480.496 6.9985L492 0.28941Z" fill="#723E30" stroke="#A3724F" stroke-width="0.5"/>
<path d="M492 3.28792L498.496 6.99917L492 10.712L485.504 6.99917L492 3.28792Z" stroke="#A3724F" stroke-width="0.5"/>
<path d="M516 0.28941L527.504 6.99851L516 13.7106L504.496 6.9985L516 0.28941Z" fill="#723E30" stroke="#A3724F" stroke-width="0.5"/>
<path d="M516 3.28792L522.496 6.99917L516 10.712L509.504 6.99917L516 3.28792Z" stroke="#A3724F" stroke-width="0.5"/>
<path d="M540 0.28941L551.504 6.99851L540 13.7106L528.496 6.9985L540 0.28941Z" fill="#723E30" stroke="#A3724F" stroke-width="0.5"/>
<path d="M540 3.28792L546.496 6.99917L540 10.712L533.504 6.99917L540 3.28792Z" stroke="#A3724F" stroke-width="0.5"/>
<path d="M564 0.28941L575.504 6.99851L564 13.7106L552.496 6.9985L564 0.28941Z" fill="#723E30" stroke="#A3724F" stroke-width="0.5"/>
<path d="M564 3.28792L570.496 6.99917L564 10.712L557.504 6.99917L564 3.28792Z" stroke="#A3724F" stroke-width="0.5"/>
<path d="M588 0.28941L599.504 6.99851L588 13.7106L576.496 6.9985L588 0.28941Z" fill="#723E30" stroke="#A3724F" stroke-width="0.5"/>
<path d="M588 3.28792L594.496 6.99917L588 10.712L581.504 6.99917L588 3.28792Z" stroke="#A3724F" stroke-width="0.5"/>
<path d="M612 0.28941L623.504 6.99851L612 13.7106L600.496 6.9985L612 0.28941Z" fill="#723E30" stroke="#A3724F" stroke-width="0.5"/>
<path d="M612 3.28792L618.496 6.99917L612 10.712L605.504 6.99917L612 3.28792Z" stroke="#A3724F" stroke-width="0.5"/>
<path d="M636 0.28941L647.504 6.99851L636 13.7106L624.496 6.9985L636 0.28941Z" fill="#723E30" stroke="#A3724F" stroke-width="0.5"/>
<path d="M636 3.28792L642.496 6.99917L636 10.712L629.504 6.99917L636 3.28792Z" stroke="#A3724F" stroke-width="0.5"/>
<path d="M660 0.28941L671.504 6.99851L660 13.7106L648.496 6.9985L660 0.28941Z" fill="#723E30" stroke="#A3724F" stroke-width="0.5"/>
<path d="M660 3.28792L666.496 6.99917L660 10.712L653.504 6.99917L660 3.28792Z" stroke="#A3724F" stroke-width="0.5"/>
<path d="M684 0.28941L695.504 6.99851L684 13.7106L672.496 6.9985L684 0.28941Z" fill="#723E30" stroke="#A3724F" stroke-width="0.5"/>
<path d="M684 3.28792L690.496 6.99917L684 10.712L677.504 6.99917L684 3.28792Z" stroke="#A3724F" stroke-width="0.5"/>
<path d="M708 0.28941L719.504 6.99851L708 13.7106L696.496 6.9985L708 0.28941Z" fill="#723E30" stroke="#A3724F" stroke-width="0.5"/>
<path d="M708 3.28792L714.496 6.99917L708 10.712L701.504 6.99917L708 3.28792Z" stroke="#A3724F" stroke-width="0.5"/>
<path d="M732 0.28941L743.504 6.99851L732 13.7106L720.496 6.9985L732 0.28941Z" fill="#723E30" stroke="#A3724F" stroke-width="0.5"/>
<path d="M732 3.28792L738.496 6.99917L732 10.712L725.504 6.99917L732 3.28792Z" stroke="#A3724F" stroke-width="0.5"/>
<path d="M756 0.28941L767.504 6.99851L756 13.7106L744.496 6.9985L756 0.28941Z" fill="#723E30" stroke="#A3724F" stroke-width="0.5"/>
<path d="M756 3.28792L762.496 6.99917L756 10.712L749.504 6.99917L756 3.28792Z" stroke="#A3724F" stroke-width="0.5"/>
<path d="M780 0.28941L791.504 6.99851L780 13.7106L768.496 6.9985L780 0.28941Z" fill="#723E30" stroke="#A3724F" stroke-width="0.5"/>
<path d="M780 3.28792L786.496 6.99917L780 10.712L773.504 6.99917L780 3.28792Z" stroke="#A3724F" stroke-width="0.5"/>
<path d="M804 0.28941L815.504 6.99851L804 13.7106L792.496 6.9985L804 0.28941Z" fill="#723E30" stroke="#A3724F" stroke-width="0.5"/>
<path d="M804 3.28792L810.496 6.99917L804 10.712L797.504 6.99917L804 3.28792Z" stroke="#A3724F" stroke-width="0.5"/>
<path d="M828 0.28941L839.504 6.99851L828 13.7106L816.496 6.9985L828 0.28941Z" fill="#723E30" stroke="#A3724F" stroke-width="0.5"/>
<path d="M828 3.28792L834.496 6.99917L828 10.712L821.504 6.99917L828 3.28792Z" stroke="#A3724F" stroke-width="0.5"/>
<path d="M852 0.28941L863.504 6.99851L852 13.7106L840.496 6.9985L852 0.28941Z" fill="#723E30" stroke="#A3724F" stroke-width="0.5"/>
<path d="M852 3.28792L858.496 6.99917L852 10.712L845.504 6.99917L852 3.28792Z" stroke="#A3724F" stroke-width="0.5"/>
<path d="M876 0.28941L887.504 6.99851L876 13.7106L864.496 6.9985L876 0.28941Z" fill="#723E30" stroke="#A3724F" stroke-width="0.5"/>
<path d="M876 3.28792L882.496 6.99917L876 10.712L869.504 6.99917L876 3.28792Z" stroke="#A3724F" stroke-width="0.5"/>
<path d="M900 0.28941L911.504 6.99851L900 13.7106L888.496 6.9985L900 0.28941Z" fill="#723E30" stroke="#A3724F" stroke-width="0.5"/>
<path d="M900 3.28792L906.496 6.99917L900 10.712L893.504 6.99917L900 3.28792Z" stroke="#A3724F" stroke-width="0.5"/>
<path d="M924 0.28941L935.504 6.99851L924 13.7106L912.496 6.9985L924 0.28941Z" fill="#723E30" stroke="#A3724F" stroke-width="0.5"/>
<path d="M924 3.28792L930.496 6.99917L924 10.712L917.504 6.99917L924 3.28792Z" stroke="#A3724F" stroke-width="0.5"/>
<path d="M948 0.28941L959.504 6.99851L948 13.7106L936.496 6.9985L948 0.28941Z" fill="#723E30" stroke="#A3724F" stroke-width="0.5"/>
<path d="M948 3.28792L954.496 6.99917L948 10.712L941.504 6.99917L948 3.28792Z" stroke="#A3724F" stroke-width="0.5"/>
<path d="M972 0.28941L983.504 6.99851L972 13.7106L960.496 6.9985L972 0.28941Z" fill="#723E30" stroke="#A3724F" stroke-width="0.5"/>
<path d="M972 3.28792L978.496 6.99917L972 10.712L965.504 6.99917L972 3.28792Z" stroke="#A3724F" stroke-width="0.5"/>
<path d="M996 0.28941L1007.5 6.99851L996 13.7106L984.496 6.9985L996 0.28941Z" fill="#723E30" stroke="#A3724F" stroke-width="0.5"/>
<path d="M996 3.28792L1002.5 6.99917L996 10.712L989.504 6.99917L996 3.28792Z" stroke="#A3724F" stroke-width="0.5"/>
<path d="M1020 0.28941L1031.5 6.99851L1020 13.7106L1008.5 6.9985L1020 0.28941Z" fill="#723E30" stroke="#A3724F" stroke-width="0.5"/>
<path d="M1020 3.28792L1026.5 6.99917L1020 10.712L1013.5 6.99917L1020 3.28792Z" stroke="#A3724F" stroke-width="0.5"/>
<path d="M1044 0.28941L1055.5 6.99851L1044 13.7106L1032.5 6.9985L1044 0.28941Z" fill="#723E30" stroke="#A3724F" stroke-width="0.5"/>
<path d="M1044 3.28792L1050.5 6.99917L1044 10.712L1037.5 6.99917L1044 3.28792Z" stroke="#A3724F" stroke-width="0.5"/>
<path d="M1068 0.28941L1079.5 6.99851L1068 13.7106L1056.5 6.9985L1068 0.28941Z" fill="#723E30" stroke="#A3724F" stroke-width="0.5"/>
<path d="M1068 3.28792L1074.5 6.99917L1068 10.712L1061.5 6.99917L1068 3.28792Z" stroke="#A3724F" stroke-width="0.5"/>
<path d="M1092 0.28941L1103.5 6.99851L1092 13.7106L1080.5 6.9985L1092 0.28941Z" fill="#723E30" stroke="#A3724F" stroke-width="0.5"/>
<path d="M1092 3.28792L1098.5 6.99917L1092 10.712L1085.5 6.99917L1092 3.28792Z" stroke="#A3724F" stroke-width="0.5"/>
<path d="M1116 0.28941L1127.5 6.99851L1116 13.7106L1104.5 6.9985L1116 0.28941Z" fill="#723E30" stroke="#A3724F" stroke-width="0.5"/>
<path d="M1116 3.28792L1122.5 6.99917L1116 10.712L1109.5 6.99917L1116 3.28792Z" stroke="#A3724F" stroke-width="0.5"/>
<path d="M1140 0.28941L1151.5 6.99851L1140 13.7106L1128.5 6.9985L1140 0.28941Z" fill="#723E30" stroke="#A3724F" stroke-width="0.5"/>
<path d="M1140 3.28792L1146.5 6.99917L1140 10.712L1133.5 6.99917L1140 3.28792Z" stroke="#A3724F" stroke-width="0.5"/>
<path d="M1164 0.28941L1175.5 6.99851L1164 13.7106L1152.5 6.9985L1164 0.28941Z" fill="#723E30" stroke="#A3724F" stroke-width="0.5"/>
<path d="M1164 3.28792L1170.5 6.99917L1164 10.712L1157.5 6.99917L1164 3.28792Z" stroke="#A3724F" stroke-width="0.5"/>
<path d="M1188 0.28941L1199.5 6.99851L1188 13.7106L1176.5 6.9985L1188 0.28941Z" fill="#723E30" stroke="#A3724F" stroke-width="0.5"/>
<path d="M1188 3.28792L1194.5 6.99917L1188 10.712L1181.5 6.99917L1188 3.28792Z" stroke="#A3724F" stroke-width="0.5"/>
<path d="M1212 0.28941L1223.5 6.99851L1212 13.7106L1200.5 6.9985L1212 0.28941Z" fill="#723E30" stroke="#A3724F" stroke-width="0.5"/>
<path d="M1212 3.28792L1218.5 6.99917L1212 10.712L1205.5 6.99917L1212 3.28792Z" stroke="#A3724F" stroke-width="0.5"/>
<path d="M1236 0.28941L1247.5 6.99851L1236 13.7106L1224.5 6.9985L1236 0.28941Z" fill="#723E30" stroke="#A3724F" stroke-width="0.5"/>
<path d="M1236 3.28792L1242.5 6.99917L1236 10.712L1229.5 6.99917L1236 3.28792Z" stroke="#A3724F" stroke-width="0.5"/>
<path d="M1260 0.28941L1271.5 6.99851L1260 13.7106L1248.5 6.9985L1260 0.28941Z" fill="#723E30" stroke="#A3724F" stroke-width="0.5"/>
<path d="M1260 3.28792L1266.5 6.99917L1260 10.712L1253.5 6.99917L1260 3.28792Z" stroke="#A3724F" stroke-width="0.5"/>
<path d="M1284 0.28941L1295.5 6.99851L1284 13.7106L1272.5 6.9985L1284 0.28941Z" fill="#723E30" stroke="#A3724F" stroke-width="0.5"/>
<path d="M1284 3.28792L1290.5 6.99917L1284 10.712L1277.5 6.99917L1284 3.28792Z" stroke="#A3724F" stroke-width="0.5"/>
<path d="M1308 0.28941L1319.5 6.99851L1308 13.7106L1296.5 6.9985L1308 0.28941Z" fill="#723E30" stroke="#A3724F" stroke-width="0.5"/>
<path d="M1308 3.28792L1314.5 6.99917L1308 10.712L1301.5 6.99917L1308 3.28792Z" stroke="#A3724F" stroke-width="0.5"/>
<path d="M1332 0.28941L1343.5 6.99851L1332 13.7106L1320.5 6.9985L1332 0.28941Z" fill="#723E30" stroke="#A3724F" stroke-width="0.5"/>
<path d="M1332 3.28792L1338.5 6.99917L1332 10.712L1325.5 6.99917L1332 3.28792Z" stroke="#A3724F" stroke-width="0.5"/>
<path d="M1356 0.28941L1367.5 6.99851L1356 13.7106L1344.5 6.9985L1356 0.28941Z" fill="#723E30" stroke="#A3724F" stroke-width="0.5"/>
<path d="M1356 3.28792L1362.5 6.99917L1356 10.712L1349.5 6.99917L1356 3.28792Z" stroke="#A3724F" stroke-width="0.5"/>
<path d="M1380 0.28941L1391.5 6.99851L1380 13.7106L1368.5 6.9985L1380 0.28941Z" fill="#723E30" stroke="#A3724F" stroke-width="0.5"/>
<path d="M1380 3.28792L1386.5 6.99917L1380 10.712L1373.5 6.99917L1380 3.28792Z" stroke="#A3724F" stroke-width="0.5"/>
<path d="M1404 0.28941L1415.5 6.99851L1404 13.7106L1392.5 6.9985L1404 0.28941Z" fill="#723E30" stroke="#A3724F" stroke-width="0.5"/>
<path d="M1404 3.28792L1410.5 6.99917L1404 10.712L1397.5 6.99917L1404 3.28792Z" stroke="#A3724F" stroke-width="0.5"/>
<path d="M1428 0.28941L1439.5 6.99851L1428 13.7106L1416.5 6.9985L1428 0.28941Z" fill="#723E30" stroke="#A3724F" stroke-width="0.5"/>
<path d="M1428 3.28792L1434.5 6.99917L1428 10.712L1421.5 6.99917L1428 3.28792Z" stroke="#A3724F" stroke-width="0.5"/>
<path d="M1452 0.28941L1463.5 6.99851L1452 13.7106L1440.5 6.9985L1452 0.28941Z" fill="#723E30" stroke="#A3724F" stroke-width="0.5"/>
<path d="M1452 3.28792L1458.5 6.99917L1452 10.712L1445.5 6.99917L1452 3.28792Z" stroke="#A3724F" stroke-width="0.5"/>
<path d="M1476 0.28941L1487.5 6.99851L1476 13.7106L1464.5 6.9985L1476 0.28941Z" fill="#723E30" stroke="#A3724F" stroke-width="0.5"/>
<path d="M1476 3.28792L1482.5 6.99917L1476 10.712L1469.5 6.99917L1476 3.28792Z" stroke="#A3724F" stroke-width="0.5"/>
<path d="M1500 0.28941L1511.5 6.99851L1500 13.7106L1488.5 6.9985L1500 0.28941Z" fill="#723E30" stroke="#A3724F" stroke-width="0.5"/>
<path d="M1500 3.28792L1506.5 6.99917L1500 10.712L1493.5 6.99917L1500 3.28792Z" stroke="#A3724F" stroke-width="0.5"/>
</svg>
