<svg width="1512" height="545" viewBox="0 0 1512 545" fill="none" xmlns="http://www.w3.org/2000/svg">
<g style="mix-blend-mode:soft-light" opacity="0.04">
<path d="M1417.24 29.9962C1356.56 29.9962 1295.07 -18.8861 1292.48 -20.968L1290.99 -22.1744C1275.5 -34.1656 1232.27 -61.8211 1196.69 -61.8211C1159.76 -61.8211 1115.12 -32.4224 1101.04 -21.0951L1100.17 -20.4293C1092.86 -14.6839 1034.11 29.9981 976.093 29.9981C915.411 29.9981 853.924 -18.8842 851.337 -20.9661L850.884 -21.3375C836.402 -32.8245 791.955 -61.8191 755.527 -61.8191C718.838 -61.8191 674.015 -32.4069 659.84 -21.0719L659.122 -20.5158C652.326 -15.1629 593.257 30 534.927 30C474.241 30 412.753 -18.8823 410.166 -20.9642L409.635 -21.401C395.07 -32.9303 350.718 -61.8191 314.359 -61.8191C277.67 -61.8191 232.848 -32.4069 218.673 -21.0719L217.929 -20.4966C211.015 -15.0532 152.018 30 93.759 30C33.0756 30 -28.4129 -18.8823 -31 -20.9642L-1.90455 -56.9029C12.2474 -45.591 57.0702 -16.1789 93.759 -16.1789C130.448 -16.1789 175.271 -45.591 189.446 -56.9241L190.185 -57.4975C197.08 -62.9255 256.089 -107.998 314.359 -107.998C375.043 -107.998 436.533 -59.1138 439.12 -57.0319L439.651 -56.5951C454.216 -45.0658 498.566 -16.1789 534.927 -16.1789C571.616 -16.1789 616.438 -45.591 630.614 -56.9241L631.332 -57.4802C638.128 -62.8331 697.197 -107.998 755.527 -107.998C816.216 -107.998 877.701 -59.1119 880.29 -57.0319L880.74 -56.6624C895.218 -45.1773 939.666 -16.1808 976.094 -16.1808C1012.79 -16.1808 1057.61 -45.593 1071.78 -56.9261L1072.6 -57.5552C1079.83 -63.241 1138.63 -108 1196.69 -108C1257.38 -108 1318.87 -59.1157 1321.46 -57.0338L1322.95 -55.8293C1338.44 -43.8382 1381.67 -16.1808 1417.24 -16.1808C1453.93 -16.1808 1498.75 -45.593 1512.93 -56.9261L1514.24 -57.9054L1529.67 -36.1917L1542 -20.968C1539.41 -18.8861 1477.92 29.9962 1417.24 29.9962Z" fill="#F8F2D8"/>
<path d="M1417.24 127.996C1356.56 127.996 1295.07 79.1139 1292.48 77.032L1290.99 75.8256C1275.5 63.8344 1232.27 36.1789 1196.69 36.1789C1159.76 36.1789 1115.12 65.5776 1101.04 76.9049L1100.17 77.5707C1092.86 83.3161 1034.11 127.998 976.093 127.998C915.411 127.998 853.924 79.1158 851.337 77.0339L850.884 76.6625C836.402 65.1755 791.955 36.1809 755.527 36.1809C718.838 36.1809 674.015 65.5931 659.84 76.9281L659.122 77.4842C652.326 82.8371 593.257 128 534.927 128C474.241 128 412.753 79.1177 410.166 77.0358L409.635 76.599C395.07 65.0697 350.718 36.1809 314.359 36.1809C277.67 36.1809 232.848 65.5931 218.673 76.9281L217.929 77.5034C211.015 82.9468 152.018 128 93.759 128C33.0756 128 -28.4129 79.1177 -31 77.0358L-1.90455 41.0971C12.2474 52.409 57.0702 81.8211 93.759 81.8211C130.448 81.8211 175.271 52.409 189.446 41.0759L190.185 40.5025C197.08 35.0745 256.089 -9.998 314.359 -9.998C375.043 -9.998 436.533 38.8862 439.12 40.9681L439.651 41.4049C454.216 52.9342 498.566 81.8211 534.927 81.8211C571.616 81.8211 616.438 52.409 630.614 41.0759L631.332 40.5198C638.128 35.1669 697.197 -9.998 755.527 -9.998C816.216 -9.998 877.701 38.8881 880.29 40.9681L880.74 41.3376C895.218 52.8227 939.666 81.8192 976.094 81.8192C1012.79 81.8192 1057.61 52.407 1071.78 41.0739L1072.6 40.4448C1079.83 34.759 1138.63 -10 1196.69 -10C1257.38 -10 1318.87 38.8843 1321.46 40.9662L1322.95 42.1707C1338.44 54.1618 1381.67 81.8192 1417.24 81.8192C1453.93 81.8192 1498.75 52.407 1512.93 41.0739L1514.24 40.0946L1529.67 61.8083L1542 77.032C1539.41 79.1139 1477.92 127.996 1417.24 127.996Z" fill="#F8F2D8"/>
<path d="M1417.24 225.996C1356.56 225.996 1295.07 177.114 1292.48 175.032L1290.99 173.826C1275.5 161.834 1232.27 134.179 1196.69 134.179C1159.76 134.179 1115.12 163.578 1101.04 174.905L1100.17 175.571C1092.86 181.316 1034.11 225.998 976.093 225.998C915.411 225.998 853.924 177.116 851.337 175.034L850.884 174.663C836.402 163.176 791.955 134.181 755.527 134.181C718.838 134.181 674.015 163.593 659.84 174.928L659.122 175.484C652.326 180.837 593.257 226 534.927 226C474.241 226 412.753 177.118 410.166 175.036L409.635 174.599C395.07 163.07 350.718 134.181 314.359 134.181C277.67 134.181 232.848 163.593 218.673 174.928L217.929 175.503C211.015 180.947 152.018 226 93.759 226C33.0756 226 -28.4129 177.118 -31 175.036L-1.90455 139.097C12.2474 150.409 57.0702 179.821 93.759 179.821C130.448 179.821 175.271 150.409 189.446 139.076L190.185 138.502C197.08 133.075 256.089 88.002 314.359 88.002C375.043 88.002 436.533 136.886 439.12 138.968L439.651 139.405C454.216 150.934 498.566 179.821 534.927 179.821C571.616 179.821 616.438 150.409 630.614 139.076L631.332 138.52C638.128 133.167 697.197 88.002 755.527 88.002C816.216 88.002 877.701 136.888 880.29 138.968L880.74 139.338C895.218 150.823 939.666 179.819 976.094 179.819C1012.79 179.819 1057.61 150.407 1071.78 139.074L1072.6 138.445C1079.83 132.759 1138.63 88 1196.69 88C1257.38 88 1318.87 136.884 1321.46 138.966L1322.95 140.171C1338.44 152.162 1381.67 179.819 1417.24 179.819C1453.93 179.819 1498.75 150.407 1512.93 139.074L1514.24 138.095L1529.67 159.808L1542 175.032C1539.41 177.114 1477.92 225.996 1417.24 225.996Z" fill="#F8F2D8"/>
<path d="M1417.24 323.996C1356.56 323.996 1295.07 275.114 1292.48 273.032L1290.99 271.826C1275.5 259.834 1232.27 232.179 1196.69 232.179C1159.76 232.179 1115.12 261.578 1101.04 272.905L1100.17 273.571C1092.86 279.316 1034.11 323.998 976.093 323.998C915.411 323.998 853.924 275.116 851.337 273.034L850.884 272.663C836.402 261.176 791.955 232.181 755.527 232.181C718.838 232.181 674.015 261.593 659.84 272.928L659.122 273.484C652.326 278.837 593.257 324 534.927 324C474.241 324 412.753 275.118 410.166 273.036L409.635 272.599C395.07 261.07 350.718 232.181 314.359 232.181C277.67 232.181 232.848 261.593 218.673 272.928L217.929 273.503C211.015 278.947 152.018 324 93.759 324C33.0756 324 -28.4129 275.118 -31 273.036L-1.90455 237.097C12.2474 248.409 57.0702 277.821 93.759 277.821C130.448 277.821 175.271 248.409 189.446 237.076L190.185 236.502C197.08 231.075 256.089 186.002 314.359 186.002C375.043 186.002 436.533 234.886 439.12 236.968L439.651 237.405C454.216 248.934 498.566 277.821 534.927 277.821C571.616 277.821 616.438 248.409 630.614 237.076L631.332 236.52C638.128 231.167 697.197 186.002 755.527 186.002C816.216 186.002 877.701 234.888 880.29 236.968L880.74 237.338C895.218 248.823 939.666 277.819 976.094 277.819C1012.79 277.819 1057.61 248.407 1071.78 237.074L1072.6 236.445C1079.83 230.759 1138.63 186 1196.69 186C1257.38 186 1318.87 234.884 1321.46 236.966L1322.95 238.171C1338.44 250.162 1381.67 277.819 1417.24 277.819C1453.93 277.819 1498.75 248.407 1512.93 237.074L1514.24 236.095L1529.67 257.808L1542 273.032C1539.41 275.114 1477.92 323.996 1417.24 323.996Z" fill="#F8F2D8"/>
<path d="M1417.24 421.996C1356.56 421.996 1295.07 373.114 1292.48 371.032L1290.99 369.826C1275.5 357.834 1232.27 330.179 1196.69 330.179C1159.76 330.179 1115.12 359.578 1101.04 370.905L1100.17 371.571C1092.86 377.316 1034.11 421.998 976.093 421.998C915.411 421.998 853.924 373.116 851.337 371.034L850.884 370.663C836.402 359.176 791.955 330.181 755.527 330.181C718.838 330.181 674.015 359.593 659.84 370.928L659.122 371.484C652.326 376.837 593.257 422 534.927 422C474.241 422 412.753 373.118 410.166 371.036L409.635 370.599C395.07 359.07 350.718 330.181 314.359 330.181C277.67 330.181 232.848 359.593 218.673 370.928L217.929 371.503C211.015 376.947 152.018 422 93.759 422C33.0756 422 -28.4129 373.118 -31 371.036L-1.90455 335.097C12.2474 346.409 57.0702 375.821 93.759 375.821C130.448 375.821 175.271 346.409 189.446 335.076L190.185 334.502C197.08 329.075 256.089 284.002 314.359 284.002C375.043 284.002 436.533 332.886 439.12 334.968L439.651 335.405C454.216 346.934 498.566 375.821 534.927 375.821C571.616 375.821 616.438 346.409 630.614 335.076L631.332 334.52C638.128 329.167 697.197 284.002 755.527 284.002C816.216 284.002 877.701 332.888 880.29 334.968L880.74 335.338C895.218 346.823 939.666 375.819 976.094 375.819C1012.79 375.819 1057.61 346.407 1071.78 335.074L1072.6 334.445C1079.83 328.759 1138.63 284 1196.69 284C1257.38 284 1318.87 332.884 1321.46 334.966L1322.95 336.171C1338.44 348.162 1381.67 375.819 1417.24 375.819C1453.93 375.819 1498.75 346.407 1512.93 335.074L1514.24 334.095L1529.67 355.808L1542 371.032C1539.41 373.114 1477.92 421.996 1417.24 421.996Z" fill="#F8F2D8"/>
<path d="M1417.24 519.996C1356.56 519.996 1295.07 471.114 1292.48 469.032L1290.99 467.826C1275.5 455.834 1232.27 428.179 1196.69 428.179C1159.76 428.179 1115.12 457.578 1101.04 468.905L1100.17 469.571C1092.86 475.316 1034.11 519.998 976.093 519.998C915.411 519.998 853.924 471.116 851.337 469.034L850.884 468.663C836.402 457.176 791.955 428.181 755.527 428.181C718.838 428.181 674.015 457.593 659.84 468.928L659.122 469.484C652.326 474.837 593.257 520 534.927 520C474.241 520 412.753 471.118 410.166 469.036L409.635 468.599C395.07 457.07 350.718 428.181 314.359 428.181C277.67 428.181 232.848 457.593 218.673 468.928L217.929 469.503C211.015 474.947 152.018 520 93.759 520C33.0756 520 -28.4129 471.118 -31 469.036L-1.90455 433.097C12.2474 444.409 57.0702 473.821 93.759 473.821C130.448 473.821 175.271 444.409 189.446 433.076L190.185 432.502C197.08 427.075 256.089 382.002 314.359 382.002C375.043 382.002 436.533 430.886 439.12 432.968L439.651 433.405C454.216 444.934 498.566 473.821 534.927 473.821C571.616 473.821 616.438 444.409 630.614 433.076L631.332 432.52C638.128 427.167 697.197 382.002 755.527 382.002C816.216 382.002 877.701 430.888 880.29 432.968L880.74 433.338C895.218 444.823 939.666 473.819 976.094 473.819C1012.79 473.819 1057.61 444.407 1071.78 433.074L1072.6 432.445C1079.83 426.759 1138.63 382 1196.69 382C1257.38 382 1318.87 430.884 1321.46 432.966L1322.95 434.171C1338.44 446.162 1381.67 473.819 1417.24 473.819C1453.93 473.819 1498.75 444.407 1512.93 433.074L1514.24 432.095L1529.67 453.808L1542 469.032C1539.41 471.114 1477.92 519.996 1417.24 519.996Z" fill="#F8F2D8"/>
<path d="M1417.24 617.996C1356.56 617.996 1295.07 569.114 1292.48 567.032L1290.99 565.826C1275.5 553.834 1232.27 526.179 1196.69 526.179C1159.76 526.179 1115.12 555.578 1101.04 566.905L1100.17 567.571C1092.86 573.316 1034.11 617.998 976.093 617.998C915.411 617.998 853.924 569.116 851.337 567.034L850.884 566.663C836.402 555.176 791.955 526.181 755.527 526.181C718.838 526.181 674.015 555.593 659.84 566.928L659.122 567.484C652.326 572.837 593.257 618 534.927 618C474.241 618 412.753 569.118 410.166 567.036L409.635 566.599C395.07 555.07 350.718 526.181 314.359 526.181C277.67 526.181 232.848 555.593 218.673 566.928L217.929 567.503C211.015 572.947 152.018 618 93.759 618C33.0756 618 -28.4129 569.118 -31 567.036L-1.90455 531.097C12.2474 542.409 57.0702 571.821 93.759 571.821C130.448 571.821 175.271 542.409 189.446 531.076L190.185 530.502C197.08 525.075 256.089 480.002 314.359 480.002C375.043 480.002 436.533 528.886 439.12 530.968L439.651 531.405C454.216 542.934 498.566 571.821 534.927 571.821C571.616 571.821 616.438 542.409 630.614 531.076L631.332 530.52C638.128 525.167 697.197 480.002 755.527 480.002C816.216 480.002 877.701 528.888 880.29 530.968L880.74 531.338C895.218 542.823 939.666 571.819 976.094 571.819C1012.79 571.819 1057.61 542.407 1071.78 531.074L1072.6 530.445C1079.83 524.759 1138.63 480 1196.69 480C1257.38 480 1318.87 528.884 1321.46 530.966L1322.95 532.171C1338.44 544.162 1381.67 571.819 1417.24 571.819C1453.93 571.819 1498.75 542.407 1512.93 531.074L1514.24 530.095L1529.67 551.808L1542 567.032C1539.41 569.114 1477.92 617.996 1417.24 617.996Z" fill="#F8F2D8"/>
</g>
</svg>
