<svg width="1398" height="481" viewBox="0 0 1398 481" fill="none" xmlns="http://www.w3.org/2000/svg">
<mask id="path-1-inside-1_765_6800" fill="white">
<path fill-rule="evenodd" clip-rule="evenodd" d="M75.8386 18.9297C75.8386 52.0668 48.9757 78.9297 15.8386 78.9297C10.3563 78.9297 5.04565 78.1944 0 76.8171V421.042C5.04565 419.665 10.3563 418.93 15.8386 418.93C48.9757 418.93 75.8386 445.793 75.8386 478.93C75.8386 479.582 75.8282 480.232 75.8075 480.88H1324.89C1324.85 480.086 1324.84 479.287 1324.84 478.485C1324.84 445.594 1351.7 418.93 1384.84 418.93C1389.36 418.93 1393.76 419.426 1398 420.367V77.4817C1393.76 78.4296 1389.36 78.9297 1384.84 78.9297C1351.7 78.9297 1324.84 52.0668 1324.84 18.9297C1324.84 12.3152 1325.91 5.95075 1327.89 0H72.7914C74.7683 5.95075 75.8386 12.3152 75.8386 18.9297Z"/>
</mask>
<path d="M0 76.8171L1.05336 72.9582L-4 71.5788V76.8171H0ZM0 421.042H-4V426.281L1.05337 424.901L0 421.042ZM75.8075 480.88L71.8096 480.752L71.6778 484.88H75.8075V480.88ZM1324.89 480.88V484.88H1329.05L1328.88 480.721L1324.89 480.88ZM1398 420.367L1397.13 424.272L1402 425.353V420.367H1398ZM1398 77.4817H1402V72.4876L1397.13 73.5783L1398 77.4817ZM1327.89 0L1331.68 1.26109L1333.43 -4H1327.89V0ZM72.7914 0V-4H67.2476L68.9954 1.26107L72.7914 0ZM15.8386 82.9297C51.1848 82.9297 79.8386 54.2759 79.8386 18.9297H71.8386C71.8386 49.8576 46.7666 74.9297 15.8386 74.9297V82.9297ZM-1.05336 80.6759C4.33238 82.146 9.99715 82.9297 15.8386 82.9297V74.9297C10.7154 74.9297 5.75891 74.2427 1.05336 72.9582L-1.05336 80.6759ZM4 421.042V76.8171H-4V421.042H4ZM1.05337 424.901C5.75891 423.617 10.7154 422.93 15.8386 422.93V414.93C9.99715 414.93 4.33238 415.713 -1.05337 417.184L1.05337 424.901ZM15.8386 422.93C46.7666 422.93 71.8386 448.002 71.8386 478.93H79.8386C79.8386 443.583 51.1848 414.93 15.8386 414.93V422.93ZM71.8386 478.93C71.8386 479.54 71.8289 480.147 71.8096 480.752L79.8055 481.007C79.8275 480.317 79.8386 479.625 79.8386 478.93H71.8386ZM1324.89 476.88H75.8075V484.88H1324.89V476.88ZM1320.84 478.485C1320.84 479.34 1320.86 480.192 1320.89 481.039L1328.88 480.721C1328.85 479.979 1328.84 479.234 1328.84 478.485H1320.84ZM1384.84 414.93C1349.52 414.93 1320.84 443.357 1320.84 478.485H1328.84C1328.84 447.831 1353.88 422.93 1384.84 422.93V414.93ZM1398.87 416.462C1394.35 415.458 1389.65 414.93 1384.84 414.93V422.93C1389.07 422.93 1393.18 423.394 1397.13 424.272L1398.87 416.462ZM1394 77.4817V420.367H1402V77.4817H1394ZM1384.84 82.9297C1389.66 82.9297 1394.35 82.3968 1398.87 81.3852L1397.13 73.5783C1393.18 74.4624 1389.06 74.9297 1384.84 74.9297V82.9297ZM1320.84 18.9297C1320.84 54.2759 1349.49 82.9297 1384.84 82.9297V74.9297C1353.91 74.9297 1328.84 49.8576 1328.84 18.9297H1320.84ZM1324.09 -1.26109C1321.98 5.09124 1320.84 11.8813 1320.84 18.9297H1328.84C1328.84 12.7492 1329.84 6.81025 1331.68 1.26109L1324.09 -1.26109ZM72.7914 4H1327.89V-4H72.7914V4ZM79.8386 18.9297C79.8386 11.8813 78.6977 5.09124 76.5874 -1.26107L68.9954 1.26107C70.8389 6.81025 71.8386 12.7492 71.8386 18.9297H79.8386Z" fill="#B2805C" mask="url(#path-1-inside-1_765_6800)"/>
<rect x="32" y="22" width="1334" height="436" stroke="#B2805C" stroke-width="4"/>
</svg>
