<svg width="1512" height="10" viewBox="0 0 1512 10" fill="none" xmlns="http://www.w3.org/2000/svg">
<g clip-path="url(#clip0_504_1367)">
<g opacity="0.8">
<rect width="5.94979" height="756.531" transform="matrix(-0.998699 0.0509899 -0.580198 -0.814475 212.12 245.176)" fill="#723E30"/>
<rect width="5.94979" height="756.531" transform="matrix(-0.998699 0.0509899 -0.580198 -0.814475 247 245.176)" fill="#723E30"/>
<rect width="5.94979" height="756.531" transform="matrix(-0.998699 0.0509899 -0.580198 -0.814475 281.88 245.176)" fill="#723E30"/>
<rect width="5.94979" height="756.531" transform="matrix(-0.998699 0.0509899 -0.580198 -0.814475 316.76 245.176)" fill="#723E30"/>
<rect width="5.94979" height="756.531" transform="matrix(-0.998699 0.0509899 -0.580198 -0.814475 351.64 245.176)" fill="#723E30"/>
<rect width="5.94979" height="756.531" transform="matrix(-0.998699 0.0509899 -0.580198 -0.814475 386.52 245.176)" fill="#723E30"/>
<rect width="5.94979" height="756.531" transform="matrix(-0.998699 0.0509899 -0.580198 -0.814475 421.4 245.176)" fill="#723E30"/>
<rect width="5.94979" height="756.531" transform="matrix(-0.998699 0.0509899 -0.580198 -0.814475 456.28 245.176)" fill="#723E30"/>
<rect width="5.94979" height="756.531" transform="matrix(-0.998699 0.0509899 -0.580198 -0.814475 491.16 245.176)" fill="#723E30"/>
<rect width="5.94979" height="756.531" transform="matrix(-0.998699 0.0509899 -0.580198 -0.814475 526.04 245.176)" fill="#723E30"/>
<rect width="5.94979" height="756.531" transform="matrix(-0.998699 0.0509899 -0.580198 -0.814475 560.92 245.176)" fill="#723E30"/>
<rect width="5.94979" height="756.531" transform="matrix(-0.998699 0.0509899 -0.580198 -0.814475 595.8 245.176)" fill="#723E30"/>
<rect width="5.94979" height="756.531" transform="matrix(-0.998699 0.0509899 -0.580198 -0.814475 630.68 245.176)" fill="#723E30"/>
<rect width="5.94979" height="756.531" transform="matrix(-0.998699 0.0509899 -0.580198 -0.814475 665.56 245.176)" fill="#723E30"/>
<rect width="5.94979" height="756.531" transform="matrix(-0.998699 0.0509899 -0.580198 -0.814475 700.44 245.176)" fill="#723E30"/>
<rect width="5.94979" height="756.531" transform="matrix(-0.998699 0.0509899 -0.580198 -0.814475 735.32 245.176)" fill="#723E30"/>
<rect width="5.94979" height="756.531" transform="matrix(-0.998699 0.0509899 -0.580198 -0.814475 770.2 245.176)" fill="#723E30"/>
<rect width="5.94979" height="756.531" transform="matrix(-0.998699 0.0509899 -0.580198 -0.814475 805.08 245.176)" fill="#723E30"/>
<rect width="5.94979" height="756.531" transform="matrix(-0.998699 0.0509899 -0.580198 -0.814475 839.96 245.176)" fill="#723E30"/>
<rect width="5.94979" height="756.531" transform="matrix(-0.998699 0.0509899 -0.580198 -0.814475 874.84 245.176)" fill="#723E30"/>
<rect width="5.94979" height="756.531" transform="matrix(-0.998699 0.0509899 -0.580198 -0.814475 909.72 245.176)" fill="#723E30"/>
<rect width="5.94979" height="756.531" transform="matrix(-0.998699 0.0509899 -0.580198 -0.814475 944.6 245.176)" fill="#723E30"/>
<rect width="5.94979" height="756.531" transform="matrix(-0.998699 0.0509899 -0.580198 -0.814475 979.48 245.176)" fill="#723E30"/>
<rect width="5.94979" height="756.531" transform="matrix(-0.998699 0.0509899 -0.580198 -0.814475 1014.36 245.176)" fill="#723E30"/>
<rect width="5.94979" height="756.531" transform="matrix(-0.998699 0.0509899 -0.580198 -0.814475 1049.24 245.176)" fill="#723E30"/>
<rect width="5.94979" height="756.531" transform="matrix(-0.998699 0.0509899 -0.580198 -0.814475 1084.12 245.176)" fill="#723E30"/>
<rect width="5.94979" height="756.531" transform="matrix(-0.998699 0.0509899 -0.580198 -0.814475 1119 245.176)" fill="#723E30"/>
<rect width="5.94979" height="756.531" transform="matrix(-0.998699 0.0509899 -0.580198 -0.814475 1153.88 245.176)" fill="#723E30"/>
<rect width="5.94979" height="756.531" transform="matrix(-0.998699 0.0509899 -0.580198 -0.814475 1188.76 245.176)" fill="#723E30"/>
<rect width="5.94979" height="756.531" transform="matrix(-0.998699 0.0509899 -0.580198 -0.814475 1223.64 245.176)" fill="#723E30"/>
<rect width="5.94979" height="756.531" transform="matrix(-0.998699 0.0509899 -0.580198 -0.814475 1258.52 245.176)" fill="#723E30"/>
<rect width="5.94979" height="756.531" transform="matrix(-0.998699 0.0509899 -0.580198 -0.814475 1293.4 245.176)" fill="#723E30"/>
<rect width="5.94979" height="756.531" transform="matrix(-0.998699 0.0509899 -0.580198 -0.814475 1328.28 245.176)" fill="#723E30"/>
<rect width="5.94979" height="756.531" transform="matrix(-0.998699 0.0509899 -0.580198 -0.814475 1363.16 245.176)" fill="#723E30"/>
<rect width="5.94979" height="756.531" transform="matrix(-0.998699 0.0509899 -0.580198 -0.814475 1398.04 245.176)" fill="#723E30"/>
<rect width="5.94979" height="756.531" transform="matrix(-0.998699 0.0509899 -0.580198 -0.814475 1432.92 245.176)" fill="#723E30"/>
<rect width="5.94979" height="756.531" transform="matrix(-0.998699 0.0509899 -0.580198 -0.814475 1467.8 245.176)" fill="#723E30"/>
<rect width="5.94979" height="756.531" transform="matrix(-0.998699 0.0509899 -0.580198 -0.814475 1502.68 245.176)" fill="#723E30"/>
<rect width="5.94979" height="756.531" transform="matrix(-0.998699 0.0509899 -0.580198 -0.814475 1537.56 245.176)" fill="#723E30"/>
<rect width="5.94979" height="756.531" transform="matrix(-0.998699 0.0509899 -0.580198 -0.814475 1572.44 245.176)" fill="#723E30"/>
<rect width="5.94979" height="756.531" transform="matrix(-0.998699 0.0509899 -0.580198 -0.814475 1607.32 245.176)" fill="#723E30"/>
<rect width="5.94979" height="756.531" transform="matrix(-0.998699 0.0509899 -0.580198 -0.814475 1642.2 245.176)" fill="#723E30"/>
<rect width="5.94979" height="756.531" transform="matrix(-0.998699 0.0509899 -0.580198 -0.814475 1677.08 245.176)" fill="#723E30"/>
<rect width="5.94979" height="756.531" transform="matrix(-0.998699 0.0509899 -0.580198 -0.814475 1711.96 245.176)" fill="#723E30"/>
<rect width="5.94979" height="756.531" transform="matrix(-0.998699 0.0509899 -0.580198 -0.814475 1746.84 245.176)" fill="#723E30"/>
</g>
<path d="M1.927 1H1513.93" stroke="#723E30" stroke-width="2" stroke-linecap="round"/>
</g>
<defs>
<clipPath id="clip0_504_1367">
<rect width="1514" height="10" fill="white"/>
</clipPath>
</defs>
</svg>
